<svg xmlns="http://www.w3.org/2000/svg" viewBox="0 0 490 100" width="490" height="100">
  <defs>
    <style>
      @import url('https://fonts.googleapis.com/css2?family=Bricolage+Grotesque:opsz,wght@12..96,800&amp;display=swap');
    </style>
    <linearGradient id="g-top" x1="88" y1="6" x2="12" y2="28" gradientUnits="userSpaceOnUse">
      <stop offset="0%" stop-color="#FF5C00"/>
      <stop offset="100%" stop-color="#FF7A30"/>
    </linearGradient>
    <linearGradient id="g-right" x1="0" y1="28" x2="0" y2="94" gradientUnits="userSpaceOnUse">
      <stop offset="0%" stop-color="#2E2E2E"/>
      <stop offset="100%" stop-color="#0A0A0A"/>
    </linearGradient>
    <linearGradient id="g-left" x1="0" y1="28" x2="0" y2="94" gradientUnits="userSpaceOnUse">
      <stop offset="0%" stop-color="#191919"/>
      <stop offset="100%" stop-color="#040404"/>
    </linearGradient>
    <clipPath id="clip-top">
      <polygon points="50,6 88,28 50,50 12,28"/>
    </clipPath>
  </defs>

  <!-- White background -->
  <rect width="490" height="100" fill="#FFFFFF"/>

  <!-- ═══════════ CUBE MARK ═══════════ -->
  <polygon points="12,28 50,50 50,94 12,72" fill="url(#g-left)"/>
  <polygon points="88,28 88,72 50,94 50,50" fill="url(#g-right)"/>
  <polygon points="50,6 88,28 50,50 12,28" fill="url(#g-top)"/>

  <!-- Blueprint grid on top face -->
  <g clip-path="url(#clip-top)" stroke="white" stroke-width="0.7" fill="none">
    <line x1="37" y1="13" x2="75" y2="35" opacity="0.20"/>
    <line x1="25" y1="21" x2="63" y2="43" opacity="0.12"/>
    <line x1="63" y1="13" x2="25" y2="35" opacity="0.20"/>
    <line x1="75" y1="21" x2="37" y2="43" opacity="0.12"/>
  </g>

  <!-- Edges -->
  <line x1="50" y1="50" x2="50" y2="94" stroke="#1E1E1E" stroke-width="0.8"/>
  <line x1="12" y1="72" x2="50" y2="94" stroke="#111" stroke-width="0.6" opacity="0.6"/>
  <line x1="88" y1="72" x2="50" y2="94" stroke="#2A2A2A" stroke-width="0.6" opacity="0.6"/>
  <line x1="50" y1="6" x2="88" y2="28" stroke="#FFAA70" stroke-width="1" opacity="0.4"/>
  <line x1="50" y1="6" x2="12" y2="28" stroke="#FFAA70" stroke-width="1" opacity="0.4"/>
  <circle cx="50" cy="6" r="2.2" fill="#FFB880" opacity="0.85"/>

  <!-- ═══════════ DIVIDER ═══════════ -->
  <line x1="112" y1="20" x2="112" y2="80" stroke="#FF5C00" stroke-width="0.8" opacity="0.30"/>

  <!-- ═══════════ WORDMARK ═══════════ -->
  <text
    x="128"
    y="66"
    font-family="'Bricolage Grotesque', 'Space Grotesk', 'Arial Black', system-ui, sans-serif"
    font-weight="800"
    font-size="44"
    letter-spacing="-1.5"
  >
    <tspan fill="#0A0A0A">OUTPUT</tspan><tspan fill="#FF5C00">CRAFT</tspan>
  </text>
</svg>
